<?xml version="1.0" standalone="no"?>
<!DOCTYPE svg PUBLIC "-//W3C//DTD SVG 1.1//EN" "http://www.w3.org/Graphics/SVG/1.1/DTD/svg11.dtd" >
<!--
2013-9-30: Created.
-->
<svg>
<metadata>
Created by iconfont
</metadata>
<defs>

<font id="iconfont" horiz-adv-x="1024" >
  <font-face
    font-family="iconfont"
    font-weight="500"
    font-stretch="normal"
    units-per-em="1024"
    ascent="896"
    descent="-128"
  />
    <missing-glyph />
    
    <glyph glyph-name="wuxia" unicode="&#58906;" d="M1024 597.333333 1024 640 597.333333 853.333333c0 21.333333-21.333333 42.666667-42.666667 42.666667l-85.333333 0c-25.6 0-42.666667-17.066667-42.666667-42.666667L0 640l0-42.666667c0 0 25.6-25.6 85.333333-51.2L85.333333 469.333333l85.333333-42.666667L170.666667 512c34.133333-8.533333 72.533333-21.333333 119.466667-25.6 17.066667-55.466667 51.2-106.666667 85.333333-140.8-157.866667-46.933333-273.066667-174.933333-273.066667-328.533333 0-192 819.2-192 819.2 0 0 110.933333-59.733333 209.066667-153.6 268.8 29.866667 17.066667 64 38.4 93.866667 51.2 72.533333 38.4 162.133333 42.666667 162.133333 42.666667l-59.733333 38.4 17.066667 38.4c0 0-106.666667-8.533333-200.533333-51.2-51.2-21.333333-98.133333-46.933333-132.266667-64 38.4 38.4 68.266667 89.6 85.333333 140.8C947.2 520.533333 1024 597.333333 1024 597.333333zM512 469.333333c42.666667 0 85.333333 0 119.466667 4.266667-8.533333-21.333333-17.066667-34.133333-17.066667-34.133333S554.666667 409.6 512 409.6s-102.4 25.6-102.4 25.6-8.533333 17.066667-17.066667 38.4C426.666667 469.333333 469.333333 469.333333 512 469.333333zM187.733333 17.066667c0 42.666667 12.8 81.066667 34.133333 119.466667 59.733333-72.533333 140.8-145.066667 290.133333-174.933333C465.066667-46.933333 260.266667-25.6 187.733333 17.066667zM814.933333 106.666667c12.8-29.866667 21.333333-59.733333 21.333333-93.866667 0 4.266667-68.266667-12.8-183.466667 0s-183.466667 55.466667-183.466667 55.466667S614.4 64 814.933333 106.666667zM686.933333 234.666667c25.6-12.8 51.2-34.133333 72.533333-51.2C618.666667 149.333333 371.2 174.933333 298.666667 213.333333c25.6 17.066667 59.733333 34.133333 93.866667 46.933333C537.6 200.533333 652.8 221.866667 686.933333 234.666667z"  horiz-adv-x="1024" />

    
    <glyph glyph-name="tiyu" unicode="&#58958;" d="M917.333333 853.333333l-106.666667 0c0 23.466667-19.2 42.666667-42.666667 42.666667L256 896c-23.466667 0-42.666667-19.2-42.666667-42.666667L106.666667 853.333333C59.733333 853.333333 21.333333 814.933333 21.333333 768l0 0c0-247.466667 147.2-422.4 341.333333-460.8l0 0c2.133333 0 4.266667 0 6.4-2.133333l0 0c6.4-2.133333 12.8-2.133333 19.2-2.133333 46.933333-34.133333 78.933333-113.066667 78.933333-206.933333 0-19.2-2.133333-36.266667-4.266667-53.333333-42.666667 0-78.933333 0-98.133333 0C320 42.666667 320 0 320 0l0-42.666667-42.666667 0c-23.466667 0-42.666667-19.2-42.666667-42.666667s19.2-42.666667 42.666667-42.666667l42.666667 0 384 0 42.666667 0c23.466667 0 42.666667 19.2 42.666667 42.666667s-19.2 42.666667-42.666667 42.666667l-42.666667 0 0 42.666667c0 0 0 42.666667-46.933333 42.666667-17.066667 0-55.466667 0-98.133333 0-2.133333 17.066667-4.266667 34.133333-4.266667 53.333333 0 93.866667 32 172.8 78.933333 206.933333 6.4 0 12.8 2.133333 19.2 2.133333l0 0c2.133333 0 4.266667 0 6.4 2.133333l0 0c194.133333 38.4 341.333333 213.333333 341.333333 460.8l0 0C1002.666667 814.933333 964.266667 853.333333 917.333333 853.333333zM106.666667 768l106.666667 0 0-21.333333c0-132.266667 29.866667-243.2 76.8-324.266667C179.2 482.133333 106.666667 605.866667 106.666667 768zM597.333333 490.666667l-170.666667 0 0 42.666667c23.466667 0 42.666667 19.2 42.666667 42.666667L469.333333 704c0 12.8-8.533333 21.333333-21.333333 21.333333L448 768l106.666667 21.333333 0-213.333333c0-23.466667 19.2-42.666667 42.666667-42.666667l0 0L597.333333 490.666667zM733.866667 422.4c46.933333 81.066667 76.8 192 76.8 324.266667L810.666667 768l106.666667 0C917.333333 605.866667 844.8 482.133333 733.866667 422.4z"  horiz-adv-x="1024" />

    
    <glyph glyph-name="xuanhuan" unicode="&#58960;" d="M490.339808-8.536096C511.672648 72.528696 769.800012 132.260648 846.598236 298.6568c-19.199556-10.66642-40.532396-19.199556-61.865236-25.599408-93.864496-25.599408-170.66272-17.066272-230.394672 2.133284-74.66494-66.131804-268.793784-100.264348-260.260648-264.527216 8.533136-200.528696 394.65754-115.197336 394.65754-115.197336S462.607116-106.66716 490.339808-8.536096zM752.73374 123.727512c-132.263608-70.398372-230.394672-115.197336-223.99482-147.196596 8.533136-42.66568 140.796744-63.99852 198.395412-44.798964 57.598668 21.33284 147.196596 113.064052 183.462424 95.99778 36.265828-17.066272 31.99926-78.931508-10.66642-151.463164 57.598668 44.798964 115.197336 157.863016 61.865236 230.394672C908.463472 177.059612 808.199124 151.460204 752.73374 123.727512zM187.413479 285.857096c66.131804 59.731952 38.399112 42.66568 70.398372 162.129584 25.599408 102.397632 108.797484 89.597928 174.929288 198.395412S456.207264 898.109605 434.874424 895.976321c-29.865976-4.266568 25.599408-55.465384-29.865976-181.32914 6.399852 49.065532-4.266568 87.464644-29.865976 81.064792 25.599408-70.398372-44.798964-166.396152-142.930028-217.594968-113.064052-57.598668-53.3321-100.264348-91.731212-153.596448s-61.865236-74.66494-76.798224-85.33136c-44.798964 10.66642-98.131064-66.131804-34.132544-102.397632 6.399852 27.732692 29.865976 31.99926 34.132544-6.399852 21.33284-25.599408 59.731952-44.798964 95.99778-12.799704C106.348687 221.858576 149.014367 249.591268 187.413479 285.857096zM202.346467 477.852656c10.66642 17.066272 61.865236 40.532396 68.265088 34.132544 0 0-17.066272-21.33284-23.466124-34.132544-12.799704-27.732692-19.199556-51.198816-42.66568-40.532396C191.680047 443.720112 189.546763 460.786384 202.346467 477.852656zM398.608596 319.98964c-74.66494-25.599408-119.463904-2.133284-134.396892 42.66568 0-44.798964-27.732692-153.596448-115.197336-181.32914C251.411999 121.594228 317.543803 290.123664 398.608596 319.98964zM117.015107 565.3173c19.199556 66.131804 121.597188 89.597928 104.530916 181.32914-17.066272-98.131064-89.597928-85.33136-123.730472-166.396152C65.816291 501.31878 108.481971 426.65384 65.816291 356.255468 129.814811 447.98668 87.149131 456.519816 117.015107 565.3173zM304.744099 477.852656c-42.66568-49.065532-40.532396-157.863016 66.131804-138.66346s138.66346 191.99556 81.064792 300.793044C428.474572 556.784164 347.409779 526.918188 304.744099 477.852656zM605.537144 644.248808c-34.132544-19.199556-61.865236-38.399112-91.731212-49.065532 6.399852-25.599408 10.66642-53.3321 10.66642-81.064792 0-27.732692-4.266568-55.465384-10.66642-78.931508-8.533136-27.732692-19.199556-53.3321-34.132544-74.66494 241.061092-134.396892 435.189936 23.466124 492.788604 115.197336-106.6642-34.132544-174.929288-59.731952-262.393932-61.865236 132.263608 19.199556 268.793784 93.864496 317.859316 191.99556-59.731952 31.99926-110.930768 51.198816-155.729732 66.131804 29.865976 6.399852 57.598668 12.799704 83.198076 25.599408C684.468652 870.376913 539.40534 701.847476 477.540104 667.714932c10.66642-14.932988 19.199556-29.865976 25.599408-46.932248C537.272056 631.449104 571.4046 639.98224 605.537144 644.248808z"  horiz-adv-x="1028" />

    
    <glyph glyph-name="youxi" unicode="&#59327;" d="M233.497 176.359c-24.719-24.719-41.198-41.198-46.143-46.143-29.663-29.663-69.214-140.076-69.214-140.076s110.412 41.198 140.076 69.214c4.943 4.943 18.128 18.127 37.903 37.903-26.367 24.719-47.791 51.086-62.622 79.102zM752.601 657.56c14.831-4.943 29.663-9.888 42.847-14.831 8.24-1.648 13.184-3.296 16.479-4.943h1.648l28.015 28.015 11.536-11.536c6.592-6.592 16.479-6.592 23.071 0l23.071 23.071c6.592 6.592 6.592 16.479 0 23.071l-69.214 69.214c-6.592 6.592-16.479 6.592-23.071 0l-23.071-23.071c-6.592-6.592-6.592-16.479 0-23.071l9.888-9.888-51.086-52.734c3.296 0 6.592-1.648 9.888-3.296zM147.803 654.263c6.592-6.592 16.479-6.592 23.071 0l11.536 11.536 28.015-28.015h1.648c3.296 0 8.24 1.648 16.479 4.943 13.184 4.943 28.015 9.888 42.847 14.831 3.296 1.648 6.592 3.296 9.888 3.296l-51.086 52.734 11.536 11.536c6.592 6.592 6.592 16.479 0 23.071l-23.071 23.071c-6.592 6.592-16.479 6.592-23.071 0l-70.862-70.862c-6.592-6.592-6.592-16.479 0-23.071l23.071-23.071zM834.998 130.216c-4.943 4.943-21.424 21.424-46.143 46.143-14.831-28.015-36.255-54.382-60.974-77.453 19.776-19.776 32.959-32.959 37.903-37.903 29.663-29.663 140.076-69.214 140.076-69.214s-41.198 108.765-70.862 138.427zM767.432 599.881c-9.888 3.296-21.424 6.592-32.959 11.536-46.143 16.479-92.286 36.255-136.779 59.326-31.311 16.479-60.974 34.607-85.693 54.382-26.367-19.776-54.383-37.903-85.693-54.382-44.495-23.071-90.638-42.847-136.779-59.326-11.536-3.296-21.424-8.24-32.959-11.536 0-4.943 0-11.536 0-19.776 0-49.438 0-49.438 0-112.060 0-6.592 0-6.592 0-11.536 0-64.27 0-64.27 0-118.653 0-23.071 0-23.071 0-39.551 0-6.592 0-6.592 0-11.536 0-3.296 0-3.296 0-3.296 0-77.453 47.791-141.724 128.54-194.458 29.663-19.776 62.622-34.607 95.581-47.791 11.536-4.943 21.424-8.24 31.311-11.536 9.888 3.296 19.776 6.592 31.311 11.536 32.959 13.184 64.27 29.663 95.581 47.791 82.398 52.734 128.54 117.005 128.54 194.458v316.406zM643.836 466.398h-214.234v-181.274c0-23.071 82.398-65.918 82.398-65.918s82.398 42.847 82.398 65.918v82.398h-57.678v-49.438h-49.438v98.877h156.555v-131.836c0-65.918-131.836-121.948-131.836-121.948s-131.836 56.031-131.836 121.948v230.713h263.672v-49.438z"  horiz-adv-x="1024" />

    
    <glyph glyph-name="kehuan" unicode="&#58882;" d="M591.601904 211.77955a1913.476723 1913.476723 0 0 1 85.342226 46.457214c206.713046 119.376716 343.33606 247.565213 406.662308 342.851007a512.241987 512.241987 0 0 1-66.074878 105.3641c82.297177 5.739783 139.479432-6.763782 154.893311-33.495544 38.534696-66.748561-112.909355-278.851075-441.586061-468.614243-328.649759-189.736221-588.098749-214.87809-626.633446-148.129528-14.443774 25.007132 0.188631 75.452552 39.962905 137.889539a511.110199 511.110199 0 0 1 63.326249-113.717775c53.813838 6.629046 119.107243 22.231556 192.862113 48.289633a107.78936 107.78936 0 1 0 191.245273 83.105597zM953.774154 772.041697A510.005358 510.005358 0 0 1 619.788821 895.999461C337.030382 895.999461 107.78936 666.758439 107.78936 384c0-34.357859 3.395365-67.934244 9.835779-100.405789C16.895982 166.265492-25.465236 56.589818 15.494721-14.44337c45.271531-78.335918 182.002335-92.29464 357.402571-50.202895A509.708937 509.708937 0 0 1 619.788821-127.999461c277.476761 0 503.376312 220.725662 511.756935 496.181372 131.961124 135.033121 192.996849 265.592984 146.404899 346.27332-42.307324 73.323712-164.836879 90.273589-324.176501 57.613413zM916.209562 464.84202a53.89468 53.89468 0 1 1 0 107.78936 53.89468 53.89468 0 0 1 0-107.78936zM511.999461 680.420741a26.94734 26.94734 0 1 1 0 53.89468 26.94734 26.94734 0 0 1 0-53.89468z m-242.52606-323.368081a53.89468 53.89468 0 1 1 0 107.78936 53.89468 53.89468 0 0 1 0-107.78936z m684.974436-140.799852a80.84202 80.84202 0 0 0-134.467226-89.465169 1821.694082 1821.694082 0 0 1 134.467226 89.465169zM619.788821 357.05266a80.84202 80.84202 0 1 1 0 161.68404 80.84202 80.84202 0 0 1 0-161.68404z"  horiz-adv-x="1293" />

    
    <glyph glyph-name="qihuan" unicode="&#58885;" d="M349.738667 818.005333c7.68 9.301333 23.530667 23.957333 51.626666 32.32 1.706667 16.96 4.778667 33.6 4.778667 33.6s-56.554667-11.562667-104.832-34.389333-108.288-59.733333-100.16-77.12c-2.346667-10.794667-57.514667-30.421333-64.981333-43.456-7.466667-13.034667 17.941333-23.637333 21.546666-59.221333 25.770667 12.757333 80.64 54.613333 99.157334 19.904 26.837333-3.733333 103.509333 50.090667 101.653333-18.88-1.536-57.792-20.394667-88.576-20.778667-161.536-12.309333-28.8-13.461333-64.768-24.426666-62.762667-28.885333 24.682667-48.234667 78.336-48.96 104.085333-0.725333 25.728 19.52 55.317333 19.52 55.317334l-4.821334 6.485333 4.672 19.690667-15.829333 15.445333-19.925333-1.173333 11.84-6.016 1.130666-14.506667-8.064-3.349333 0.277334 11.861333-7.552 2.56-12.330667 16.405333-24.32 3.776-4.970667-8.981333 9.536-1.877333 7.466667-13.952-14.101333 4.373333-5.76-9.344-5.76 6.357333-14.293334 1.173334-24.405333-19.797334 17.92 2.752 9.386667-4.970666c1.706667-14.869333 9.770667-11.306667 26.538666-43.029334 16.789333-31.722667 1.664-57.237333 1.664-57.237333l-15.701333-18.538667 6.08-16.426666-8.256-4.565334-20.117333 1.258667 21.909333-16.512 20.074667 10.922667 4.266666-5.610667 15.509334 27.477333s-1.024 5.674667 6.912-1.109333c12.650667-80.512 48.789333-111.04 61.141333-123.114667-6.058667-14.997333-26.197333-9.066667-26.197333-9.066666s10.773333-25.770667 45.312-5.930667c12.202667-0.618667 22.378667 5.568 27.370666 12.714667 1.898667 2.688 7.424 12.608 15.488 19.904 33.173333-56.490667 87.104-94.229333 101.013334-103.36 6.101333-6.08 12.053333-11.626667 17.834666-16.661334-0.725333-21.952-0.213333-84.693333 28.010667-100.693333 34.389333-19.477333-149.610667-78.869333-190.698667 19.242667l-22.101333 23.808-23.509333 1.493333-9.6-12.565333 18.816-2.986667-35.349334-13.162667-8.853333-24.192 16.064 5.952 9.813333-6.912-30.037333-25.685333 4.544-27.114667 12.629333 15.765334 7.018667-0.533334 2.154667-7.125333h8.576l11.52 7.573333 24.533333-1.045333 32.341333-24.576 0.96-31.125333 5.418667-7.914667-1.194667-10.133333-15.146666-15.018667 19.541333-2.517333 16.896 10.346666 4.906667 16 6.4 9.664 0.810666 30.912 2.090667 11.306667s19.114667-19.904 86.890667-16.768c67.754667 3.114667 94.144 19.52 94.144 19.52s12.8-18.368-3.093334-33.472c24.704-10.069333 26.112 40.448 26.112 40.448s13.653333 25.173333 1.493334 38.869333c-4.736 12.373333 2.133333 33.365333 14.186666 52.906667 21.056-6.72 38.890667-14.357333 54.826667-34.773333C703.744 108.245333 640-53.333333 490.922667-53.333333 213.333333-53.333333 85.333333 181.333333 85.333333 256c23.232 0 53.333333-10.666667 53.333334-10.666667-21.333333 116.138667-85.333333 138.666667-138.666667 138.666667 0-266.666667 224-511.978667 490.922667-511.978667C746.666667-127.978667 810.666667 53.888 810.666667 192c0 85.333333-17.898667 121.664-52.394667 164.693333-34.517333 43.050667 20.394667 80.64 41.728 16.64 96-32 96-192 31.808-317.077333C874.666667 85.333333 906.666667 128 928 202.666667c12.074667 42.282667 32 32 32 0 0-25.088-10.816-42.602667-10.666667-42.666667 53.333333 32 119.68 256.746667 27.733334 438.357333C831.829333 885.333333 566.613333 866.090667 566.613333 866.090667L533.333333 896s-10.666667-10.666667-21.930666-32c69.056-39.146667 83.733333-257.856-37.888-277.226667-14.08 11.093333-24.192 26.453333-25.28 49.856l7.018666-3.605333 3.328 12.48-9.536 11.2c0.170667 2.986667 0.277333 5.930667 0.32 8.832l12.202667-5.376 2.666667 16.170667-16.341334 16.533333a174.442667 174.442667 0 0 1-1.856 11.562667l21.205334-5.653334v16.192l-31.232 21.845334a133.482667 133.482667 0 0 1-5.653334 11.370666l31.210667-2.197333-4.266667 11.989333-57.344 27.008 48 3.541334-6.549333 14.784s-42.602667 14.122667-91.669333 14.698666zM260.949333 781.653333s-46.250667-8.96-35.626666-23.210666c10.645333-14.250667 35.626667 23.210667 35.626666 23.210666z"  horiz-adv-x="1024" />

    
    <glyph glyph-name="dushi" unicode="&#58880;" d="M1008.125 880.125H792.418v-43.141h-43.14v-474.555h-86.283V491.853h-43.142v43.142H490.43v-43.142h-43.141v-258.848h-86.283v345.13h-86.282v86.283L15.875 750.701v-862.826h1035.391V836.984h-43.141V880.125z m-905.967-301.99h86.282v-64.711h-86.282v64.712zM210.01 405.572h64.712v-64.712H210.01V405.57zM512 233.005h86.283v-64.712H512v64.712z m323.56 517.696h86.282v-64.712H835.56v64.712z m64.712-345.13h64.712v-64.712h-64.712V405.57z m-388.272 0h86.283v-64.712H512V405.57z m323.56-345.13h129.424v-64.713H835.56V60.44z m-733.402 0h172.565v-64.713H102.158V60.44z"  horiz-adv-x="1068" />

    
    <glyph glyph-name="xiandaiyanqing" unicode="&#58881;" d="M383.1835574 396.81128735L515.92429848 270.39153472q18.05996495-17.1569666 42.89241601-17.15696661T601.70913048 270.39153472L734.44987156 396.81128735Q872.60860173 343.53439186 957.49043537 221.62962994999998T1042.37227004-51.978836330000036q0-11.73897752-9.02998248-20.76895898t-21.22045866-9.02998248T990.90137023-72.74779531000001t-9.02998248 20.76895898Q966.52041785 63.60493814999995 849.13064769 141.7142857T560.1712115 219.82363325999995t-289.41093486-78.10934756T137.5680369-51.978836330000036q0-11.73897752-9.02998248-20.76895898t-20.76895898-9.02998248-21.22045867 9.02998248-9.48148114 20.76895898q0 151.70370337 84.88183365 273.1569666T383.1835574 396.81128735z m49.66490312 244.71252216L686.59096515 641.52380951l-126.41975365-308.82539682z m-43.34391569 2.70899505L521.34228756 321.86243350999996l-321.46737168 345.84832508z m530.05996495 23.47795403l-321.46737168-345.84832508 132.74074008 322.37037105z m-493.94003505 14.44797156l59.59788394 160.73368584L634.21706699 842.89241599l60.50088229-160.73368584-269.09347455 0zM676.65798433 842.89241599L791.33876045 842.89241599 924.07950153 710.15167592l-186.92063493-26.18694908z m-480.39506185-132.74074007L329.00366356 842.89241599 443.68443969 842.89241599l-60.50088229-158.92768915z"  horiz-adv-x="1112" />

    
    <glyph glyph-name="gudaiyanqing" unicode="&#58886;" d="M93.74354465-42.12132297000005q-24.04277568 27.88962032-24.04277676 64.43463997 0 28.85133147 15.38737743 52.41325102T127.40343083 109.82902146000004Q203.37860252-14.23170263999998 333.2095925-82.51318615000002q-35.58330849-18.27250982-71.16661697-18.27250982-39.43015204 0-67.31977236 15.38737634-35.58330849-15.38737636-67.31977234-15.38737634-32.69817501 0-61.54950648 12.02138784t-45.200419 33.17903113q39.43015204 2.88513347 73.0900393 13.46395403zM875.61461699 436.81077381q-11.54053279 0-33.65988619 3.84684354-20.19593214 6.73197701-32.69817501 24.04277676t-12.50224394 38.46844089q0 28.85133147 19.23422098 48.08555244t48.08555242 19.23421991q8.65539933 0 15.38737636-6.73197704t6.73197701-15.38737634q0-10.57882165 6.251122-16.34908751t16.34908751-5.77026584 16.3490875 5.77026584 6.25112199 16.34908751q0 29.81304263-20.19593214 47.12384129-17.31079867 20.19593214-47.12384021 20.19593106-47.12384131 0-79.34116129-32.69817502t-32.21731997-79.8220163q0-40.3918632 28.85133146-73.0900382-43.27699666-16.34908751-85.59228216-16.34908752-68.28148353 0-129.83098999 38.46844089-25.00448685-15.38737636-59.62608417-15.38737636-29.81304263 0-56.74095177 13.46395404-22.11935337 62.51121766-22.11935338 120.2138795 0 47.12384131 13.46395403 94.24768258 28.85133147 18.27250982 65.39635112 18.27250873 17.31079867 0 25.966198-2.88513236 27.88962032 32.69817501 71.16661697 50.97068482t92.32425919 18.27250983q50.00897367 0 91.84340414-17.79165478T857.34210716 683.00879866l18.27250983 0q54.81752948 0 94.24768151-36.54501856t39.4301531-87.03484945-39.4301531-86.55399332-94.24768151-36.06416352z m-2.88513239-271.20251279q-2.88513347 18.27250982-13.46395512 35.58330849 67.31977234 17.31079867 122.61815685 55.77924062T1074.68880164 351.21849164q-10.57882165-141.37152279-94.24768151-252.93000297-39.43015204 60.58779534-107.71163553 67.31977235z m-780.90936225 226.00209382q0 127.90756769 60.10693921 237.06177048T315.89879383 804.66524544 545.74773118 882.08298334q-75.01346053-51.932396-118.77131221-133.67783357T383.21856618 570.4886073499999q0-124.06072412 71.64747202-222.63610421T642.88054617 209.84696885000005q30.77475269 25.00448685 75.97517166 25.00448684 13.46395404 0 20.19593214-1.92342234l3.84684464 0q3.84684464-0.96171116 9.13625437-2.40427733T761.17100335 228.11947866000003q1.92342231 0 4.80855577-1.92342232l12.50224288-6.731977q1.92342231 0 2.88513347-1.4425662t1.92342232-1.44256727q1.92342231-0.96171116 6.73197701-4.32769966t6.73197705-4.32769967l4.80855577-3.84684355q0-0.96171116 2.40427735-2.40427736t3.84684463-3.36598958 2.40427735-3.84684355l4.80855471-3.84684464q15.38737636-20.19593214 15.38737634-45.2004179l0-22.11935443 22.11935445 0q31.73646386 0 58.66437303-16.82994256T951.58978865 62.70518017999996q0-1.92342231 3.3659896-8.17454319T958.32176676 44.432670359999975q0-0.96171116 0.96171116-3.36598851t0.96171008-3.36598849q0-3.84684464 1.92342232-6.73197703 2.88513347-6.73197701 2.88513347-20.19593212 0-47.12384131-32.69817501-79.3411602t-79.82201633-32.21731998q-37.5067308 0-69.24319466 25.00448686 25.00448685 31.73646386 25.00448685 64.43463994 0 81.74543862-178.87825251 89.43912572 57.70266185-4.8085547 95.69024769-29.81304154T763.09442566-11.346569169999952q0-25.96619799-25.48534187-48.08555245t-65.87720616-32.69817501q-58.66437301-8.65539933-87.51570449-8.65539934-134.63954469 0-247.64059213 65.87720616t-178.87825252 178.8782525T91.82012235 391.61035484z"  horiz-adv-x="1098" />

    
    <glyph glyph-name="xuanhuanyanqing" unicode="&#58887;" d="M966.08 584.208c20.64-51.6 30.96-109.392 30.96-169.248 0-255.936-208.465-464.4-464.4-464.4-216.72 0-392.16 101.137-392.16 227.04 0 63.984 47.473 123.84 121.776 165.12-99.071-39.216-163.055-99.072-163.055-165.12 0-158.927 185.76-288.959 412.799-288.959 274.511 0 495.359 220.848 495.359 495.359 0 72.24-14.448 138.288-41.28 200.208zM346.88 582.144c-51.6-47.472-86.688-113.52-99.071-185.76C278.769 472.752 357.2 528.48 450.08 528.48c35.088 0 61.92-26.832 61.92-61.92 0-80.496-63.984-144.48-144.48-144.48-103.2 0-185.76-63.984-185.76-144.48 0-53.663 43.345-101.135 113.52-130.031-20.64 39.216-30.96 82.56-30.96 130.031v4.128-4.128c0-90.815 138.288-165.12 309.6-165.12 84.624 0 163.056 33.025 222.911 86.689-53.663-28.896-134.16-45.408-222.911-45.408-90.816 0-165.12 45.408-165.12 103.2 0 28.895 18.576 53.663 47.472 72.24 24.768-6.193 49.536-10.32 76.368-10.32 148.608 0 268.32 105.263 268.32 237.359 0 66.048-30.96 103.2-61.92 175.44 16.512 0 35.087 8.255 45.407 16.511 8.256 2.064 16.512 4.128 26.832 4.128 26.832 0 47.472-12.384 51.6-26.831v6.192c0 24.767-26.832 47.471-63.984 57.791 2.064 0 2.064 2.064 2.064 4.128 0 22.704-45.407 41.28-103.2 41.28-37.151 0-68.111 24.768-78.431 57.792-2.064-8.256-4.128-18.576-4.128-26.832 0-30.96 16.512-57.792 43.344-72.24h-2.064c-18.576 0-35.088 6.192-47.472 18.576 6.192-20.64 24.768-37.152 45.408-45.408 18.576-41.28 30.96-99.071 16.512-117.647-18.576-22.704-51.6-24.768-72.24-6.192-66.048 55.728-74.304 152.735-18.576 218.783 24.768 30.96 20.64 76.368-8.256 101.136-16.512 10.32-33.024 16.512-49.536 16.512-208.464 0-392.16-107.328-495.36-266.255 63.985 51.6 140.353 90.815 222.913 109.391C109.52 633.744 16.64 478.944 16.64 301.44c0-30.96 2.064-61.92 8.256-92.88C57.921 381.936 183.825 524.352 346.88 582.144zM770 683.279c-20.64-10.32-51.6-10.32-51.6 10.32 10.32 10.32 51.6 0 51.6-10.32z"  horiz-adv-x="1024" />

    
    <glyph glyph-name="xuanyilingyi" unicode="&#58888;" d="M996.351 384c0 268.595-215.756 484.351-484.351 484.351S27.649 652.595 27.649 384c0-52.838 17.613-105.677 44.032-154.112v4.403c0 30.823 13.21 57.242 39.629 70.452 79.257 44.031 206.95-101.274 233.369-215.757 8.806-48.435 13.21-96.87 8.806-140.902C415.13-82.738 472.371-100.35 512-100.35c39.629 0 96.87 22.016 158.515 52.838-4.403 39.629 0 92.467 8.806 140.902 26.42 114.483 154.112 259.789 233.37 215.757 26.419-17.613 39.628-39.629 39.628-70.451 26.42 44.032 44.032 96.87 44.032 145.305z m-598.834 26.42c-44.032-66.049-118.886-96.871-167.321-61.646s-57.242 114.483-17.613 180.531c44.032 66.048 118.886 96.87 167.321 61.645 52.839-30.822 57.242-114.483 17.613-180.53z m202.547-268.596c0-48.435-39.629-88.063-88.064-88.063-48.435 0-88.064 39.628-88.064 88.063v110.08c0 48.435 39.629 88.064 88.064 88.064 48.435 0 88.064-39.629 88.064-88.064v-110.08z m198.143 206.95c-52.838-30.822-127.692-4.403-167.32 61.645-44.033 66.048-35.226 145.305 17.612 180.531 52.838 30.822 127.692 4.403 167.321-61.645 39.629-70.45 30.823-149.708-17.613-180.53zM137.729 269.517c-22.016-13.21-22.016-26.42-4.403-110.08 8.806-44.032 17.612-74.854 17.612-110.08v-70.45c-4.403-44.033-4.403-39.63 0-44.033 0-4.403 4.403-4.403 8.807-8.806 4.403-4.403 35.225-13.21 74.854-17.613 35.225 0 70.451 0 79.257 4.404 8.807 4.403 17.613 96.87 0 176.127-30.822 83.66-136.499 202.547-176.127 180.531z m752.945 0c-44.031 22.016-149.708-96.87-167.32-184.934-17.614-74.854-8.807-167.321 0-176.128 4.402-4.403 44.031-4.403 79.257-4.403 39.628 0 70.45 8.807 74.854 17.613 4.403 4.403 4.403 8.806 8.806 8.806V44.954c0 35.226 4.403 66.048 17.613 110.08 13.21 88.064 13.21 101.273-13.21 114.483z"  horiz-adv-x="1024" />

    
    <glyph glyph-name="xianshi" unicode="&#58889;" d="M572.44444467 594.6666666599999l45.333333-200.888889q-5.333333-17.777778-18.666667-53.777778t-18.666666-52.888889q-25.777778-65.777778-64.88888899-144-23.111111 45.333333-33.77777802 72-20.444444 40.888889-31.11111099 75.555556-15.111111 38.222222-18.666667 53.333333-3.555556 9.777778-9.333333 26.666667t-9.333333 26.666667l45.333333 200.888889L572.44444467 598.2222226599999l0-3.555556zM746.66666667 775.99999966Q847.99999968 718.2222226599999 909.33333367 613.77777765T970.66666667 385.77777766Q970.66666667 228.44444466000004 875.55555567 107.55555565999998t-242.666667-161.777778l-18.666666 23.111111q-25.777778 30.222222-68.444445 109.333334 49.777778 96 92.88888899 206.222222t75.55555601 245.777778T746.66666667 775.99999966z m-174.222222-144l-113.777778 0-45.333333 118.222223q-6.222222 13.333333-0.888889 30.666666T431.99999967 807.11111066l41.77777799 33.777778 83.55555601 0 41.777777-33.777778q10.666667-8.888889 16-25.777777t2.666667-31.111111z m-288 144q-0.88888899-93.333333 21.333333-204.444444t56-208.444445 74.222222-188.444444 74.666667-152T568.88888867-69.33333333999997l-53.333333 0q-122.666667 0-227.555556 61.333333t-166.222222 166.222223-61.333333 227.555555q0 123.555556 61.333333 228T284.44444467 775.99999966z"  horiz-adv-x="1024" />

    
    <glyph glyph-name="lishi" unicode="&#58896;" d="M1181.538 817.23h-105.025c-15.754 0-26.257-10.502-26.257-26.256v-131.282h-52.512V843.487c0 15.754-10.503 26.257-26.257 26.257H866.462c-15.754 0-26.257-10.503-26.257-26.257v-131.282h-52.513V843.487c0 15.754-10.502 26.257-26.256 26.257H656.41c-15.754 0-26.256-10.503-26.256-26.257v-131.282H577.64v78.77c0 15.753-10.503 26.256-26.256 26.256H446.359c-15.754 0-26.256-10.503-26.256-26.257v-131.282H367.59V764.718C367.59 843.488 320.328 896 183.795 896S0 843.487 0 764.718v-630.154h2.626c39.384 34.133 99.774 52.513 181.169 52.513 81.395 0 141.784-18.38 181.17-52.513h2.625v52.513h52.513v-131.282c0-15.754 10.502-26.257 26.256-26.257h105.026c15.753 0 26.256 10.503 26.256 26.257V239.59h52.513v-131.282c0-15.754 10.502-26.257 26.256-26.257h105.026c15.754 0 26.256 10.503 26.256 26.257V239.59h52.513v-131.282c0-15.754 10.503-26.257 26.257-26.257h105.025c15.754 0 26.257 10.503 26.257 26.257v78.769h52.512v-131.282c0-15.754 10.503-26.257 26.257-26.257h105.025c15.754 0 26.257 10.503 26.257 26.257v735.18c0 15.753-10.503 26.256-26.257 26.256zM420.103 265.847H367.59V580.923h52.513v-315.077z m210.05 52.513h-52.512V633.436h52.513v-315.077z m210.052 0h-52.513V633.436h52.513v-315.077z m210.051-52.513h-52.512V580.923h52.512v-315.077zM183.795 134.564C47.262 134.564 0 82.051 0 3.282S47.262-128 183.795-128 367.59-75.487 367.59 3.282s-47.262 131.282-183.795 131.282z"  horiz-adv-x="1207" />

    
    <glyph glyph-name="weibiaoti--" unicode="&#58917;" d="M373.360202 374.327456c7.093199 0 13.541562 3.869018 17.410579 9.672544 3.224181 5.803526 3.224181 13.541562 0 19.345088-3.224181 5.803526-10.31738 9.672544-17.410579 9.672544-10.962217 0-19.989924-9.027708-19.989925-19.345088 0-10.962217 9.027708-19.345088 19.989925-19.345088zM462.347607 491.042821c3.224181 0 7.093199 1.934509 8.382872 5.15869 1.934509 3.224181 1.934509 6.448363 0 9.672544s-5.15869 5.15869-8.382872 5.158691c-5.15869 0-9.672544-4.513854-9.672544-9.672544-0.644836-5.803526 3.869018-10.31738 9.672544-10.317381zM575.193955 290.498741c9.672544-12.896725 27.083123-15.476071 40.624685-7.093199 12.896725 8.382872 17.410579 25.793451 9.027708 39.335012-16.120907-10.962217-32.241814-21.924433-49.652393-32.241813zM512 896C228.916877 896 0 666.438287 0 384c0-282.438287 228.916877-512 512-512 282.438287 0 512 228.916877 512 512-0.644836 282.438287-229.561713 512-512 512zM689.974811 378.19647399999997c-3.224181-99.949622-85.763224-179.90932-188.292191-179.90932-31.596977 0-63.193955 7.738035-90.921915 23.214105-64.483627-15.476071-114.780856-10.31738-131.546599 18.055416-14.831234 25.793451 0.644836 65.128463 37.400504 107.687657-2.579345 11.607053-3.869018 23.858942-3.869018 36.110832 0 102.528967 84.473552 185.06801 188.292191 185.06801 45.138539 0 88.342569-16.120907 122.518892-45.138539 58.680101 11.607053 103.81864 5.803526 119.29471-20.634761 18.055416-28.372796-4.513854-75.445844-52.876574-124.4534zM648.060453 500.715365c9.672544-11.607053 18.055416-24.503778 24.503779-38.04534-23.214106-34.176322-73.511335-80.604534-149.602015-123.808564-10.31738-5.803526-20.634761-11.607053-31.596978-16.765743-2.579345 16.120907-14.831234 29.017632-31.596977 32.241813-16.120907 3.224181-32.88665-3.869018-41.269521-18.055415-8.382872-14.186398-7.738035-31.596977 2.579345-44.493703-27.083123-9.672544-50.942065-14.831234-70.93199-17.410579-9.672544 12.896725-17.410579 26.438287-23.214106 41.269521-14.831234-22.56927-19.989924-40.624685-14.831234-49.652393 14.186398-23.858942 109.622166-14.831234 230.206549 53.521411 120.584383 68.997481 176.685139 145.732997 162.49874 169.591939-5.803526 9.027708-26.438287 13.541562-56.745592 11.607053z"  horiz-adv-x="1024" />

    
    <glyph glyph-name="xuanhuan1" unicode="&#58890;" d="M490.678-2.40300000000002c21 79.798 275.094 138.597 350.692 302.393-18.9-10.5-39.899-18.9-60.898-25.2-92.398-25.199-167.997-16.799-226.795 2.1-73.499-65.098-264.594-98.697-256.194-260.393 8.4-197.396 388.49-113.398 388.49-113.398S463.38-99 490.679-2.40300000000002ZM748.972 127.79399999999998c-130.197-69.298-226.794-113.397-220.495-144.896 8.4-42 138.597-62.999 195.296-44.1 56.699 21 144.897 111.298 180.596 94.498 35.699-16.8 31.499-77.698-10.5-149.096 56.699 44.099 113.397 155.396 60.899 226.795-52.5 69.298-151.197 44.099-205.796 16.8ZM192.485 287.39c65.099 58.8 37.8 42 69.299 159.597 25.199 100.798 107.097 88.198 172.196 195.295s23.099 247.795 2.1 245.695c-29.4-4.2 25.199-54.599-29.4-178.496 6.3 48.299-4.2 86.098-29.4 79.798 25.2-69.298-44.098-163.796-140.696-214.195-111.297-56.699-52.499-98.698-90.298-151.197S85.388 350.39 70.688 339.89c-44.099 10.5-96.598-65.098-33.6-100.797 6.3 27.3 29.4 31.499 33.6-6.3 21-25.2 58.799-44.1 94.498-12.6-52.499 4.2-10.5 31.5 27.3 67.199Zm14.7 188.996c10.5 16.8 60.898 39.9 67.198 33.6 0 0-16.8-21-23.1-33.6-12.599-27.3-18.899-50.399-41.998-39.899-12.6 6.3-14.7 23.1-2.1 39.9ZM400.38 320.99c-73.498-25.2-117.597-2.1-132.297 41.999 0-44.1-27.299-151.197-113.397-178.496C255.484 125.69399999999996 320.582 291.59000000000003 400.38 320.99ZM123.187 562.4839999999999c18.9 65.099 119.697 88.198 102.897 178.496-16.8-96.598-88.198-83.998-121.797-163.796-31.5-77.698 10.5-151.197-31.5-220.495 63 90.298 21 98.698 50.4 205.795ZM307.982 476.386c-41.999-48.299-39.899-155.396 65.099-136.497s136.497 188.996 79.798 296.094c-23.1-81.899-102.897-111.298-144.897-159.597ZM604.076 640.182c-33.6-18.9-60.899-37.799-90.298-48.298 6.3-25.2 10.5-52.5 10.5-79.799 0-27.299-4.2-54.598-10.5-77.698-8.4-27.3-18.9-52.499-33.6-73.498 237.295-132.297 428.39 23.1 485.09 113.397-104.998-33.599-172.197-58.798-258.295-60.898 130.197 18.9 264.594 92.398 312.893 188.995-58.799 31.5-109.197 50.4-153.296 65.099 29.399 6.3 56.698 12.6 81.898 25.2-266.694 170.095-409.49 4.2-470.39-29.4 10.5-14.7 18.9-29.4 25.2-46.199 33.6 10.5 67.198 18.9 100.798 23.1Z"  horiz-adv-x="1028" />

    
    <glyph glyph-name="xianxia" unicode="&#58933;" d="M1016.92 467.98L784.19 873.74q-6.07 10.12-17.71 16.19Q754.85 896 744.73 896H279.27q-10.12 0-21.75-6.07t-17.7-16.19L7.09 467.98q-14.16-21.24 0-42.49l232.73-405.76q6.07-10.12 17.7-16.19 11.63-6.07 21.75-6.07h465.46q10.12 0 21.75 6.07t17.71 16.19l232.73 405.76q14.16 21.25 0 42.49zM543.37 650.62q12.14-11.63 12.14-31.37 0-19.73-12.14-31.37T512 576.24q-19.23 0-31.37 11.64t-12.14 31.37q0 19.73 12.14 31.37 12.14 11.63 31.37 11.63t31.37-11.63zM512 101.69q-145.71 3.04-245.38 102.7-99.66 99.66-99.66 242.35 0 93.09 46.04 173.02 46.04 79.94 125.98 125.98 79.94 46.04 173.02 46.04-70.83 0-121.93-50.59-51.1-50.59-51.1-121.93 0-71.33 51.1-121.92T512 446.75q70.83 0 121.93-50.6 51.1-50.6 51.1-121.93 0-71.33-51.1-121.93-51.1-50.6-121.93-50.6z m0 172.02z m-30.86-29.85q-12.65 12.65-12.65 30.35 0 17.71 12.65 30.36 12.65 12.65 30.86 12.65t30.86-12.65q12.65-12.65 12.65-30.36 0-17.7-12.65-30.35-12.65-12.65-30.86-12.65t-30.86 12.65z"  horiz-adv-x="1024" />

    
    <glyph glyph-name="junshi" unicode="&#58922;" d="M511.998 810.664c119.466 0 226.13-46.936 302.929-127.999h110.935C836.262 810.665 682.664 896 512 896 341.329 896 187.727 810.664 98.128 682.665h110.936c76.8 81.063 183.462 128 302.935 128m465.063-358.402l-4.265-12.798-34.135-64c-4.265-136.537-68.266-255.998-170.664-328.534v85.336l82.982 165.969c1.078 2.153-0.488 4.695-2.9 4.695h-80.082V345.6h104.658a3.238 3.238 0 0 1 2.9 1.79l60.756 121.51c1.08 2.16-0.486 4.7-2.903 4.7H768V512h189.988a3.249 3.249 0 0 1 2.906 1.79l60.754 121.51c1.078 2.16-0.494 4.7-2.903 4.7H767.998S678.396 704 512 704c-166.403 0-256-64-256-64H5.249c-2.412 0-3.978-2.54-2.906-4.7L63.1 513.79a3.248 3.248 0 0 1 2.903-1.79H256v-42.67H90.583c-2.411 0-3.983-2.542-2.905-4.695l60.755-121.507a3.253 3.253 0 0 1 2.903-1.8H256v-42.662h-80.082c-2.42 0-3.984-2.542-2.906-4.695L256 128v-85.335C153.6 119.465 89.6 238.927 85.33 371.2L46.927 448l-17.062 34.127L17.064 512C4.265 469.33 0 426.665 0 384.002c0-281.6 230.399-512.003 511.998-512.003S1023.995 102.402 1023.995 384c0 42.665-4.268 85.33-17.068 128l-29.865-59.737z m-516.214 42.78l50.939 101.864a0.233 0.233 0 0 0 0.42 0l50.935-101.864c0.036-0.072 0.095-0.12 0.174-0.13l110.357-16.976c0.19-0.033 0.266-0.261 0.128-0.4l-80.656-80.655a0.215 0.215 0 0 1-0.06-0.2l16.969-110.342c0.031-0.187-0.176-0.33-0.345-0.238l-97.603 55.168a0.223 0.223 0 0 1-0.222 0.002L410 290.336a0.233 0.233 0 0 0-0.335 0.243l16.978 110.37a0.223 0.223 0 0 1-0.064 0.2l-76.39 76.389a0.236 0.236 0 0 0 0.127 0.4l110.36 16.975a0.212 0.212 0 0 1 0.17 0.13m221.817-439.577l-157.397-90.5a26.622 26.622 0 0 0-26.544 0l-157.394 90.5V149.33l158.869-91.346a23.668 23.668 0 0 1 23.597 0l158.869 91.346v-93.863z"  horiz-adv-x="1024" />

    
    <glyph glyph-name="xuanhuan11" unicode="&#58891;" d="M490.678-2.403c21 79.798 275.094 138.597 350.692 302.393-18.9-10.5-39.899-18.9-60.898-25.2-92.398-25.199-167.997-16.799-226.795 2.1-73.499-65.098-264.594-98.697-256.194-260.393 8.4-197.396 388.49-113.398 388.49-113.398S463.38-99 490.679-2.403zM748.972 127.794c-130.197-69.298-226.794-113.397-220.495-144.896 8.4-42 138.597-62.999 195.296-44.1 56.699 21 144.897 111.298 180.596 94.498 35.699-16.8 31.499-77.698-10.5-149.096 56.699 44.099 113.397 155.396 60.899 226.795-52.5 69.298-151.197 44.099-205.796 16.8zM192.485 287.39c65.099 58.8 37.8 42 69.299 159.597 25.199 100.798 107.097 88.198 172.196 195.295s23.099 247.795 2.1 245.695c-29.4-4.2 25.199-54.599-29.4-178.496 6.3 48.299-4.2 86.098-29.4 79.798 25.2-69.298-44.098-163.796-140.696-214.195-111.297-56.699-52.499-98.698-90.298-151.197S85.388 350.39 70.688 339.89c-44.099 10.5-96.598-65.098-33.6-100.797 6.3 27.3 29.4 31.499 33.6-6.3 21-25.2 58.799-44.1 94.498-12.6-52.499 4.2-10.5 31.5 27.3 67.199z m14.7 188.996c10.5 16.8 60.898 39.9 67.198 33.6 0 0-16.8-21-23.1-33.6-12.599-27.3-18.899-50.399-41.998-39.899-12.6 6.3-14.7 23.1-2.1 39.9zM400.38 320.99c-73.498-25.2-117.597-2.1-132.297 41.999 0-44.1-27.299-151.197-113.397-178.496C255.484 125.694 320.582 291.59 400.38 320.99zM123.187 562.484c18.9 65.099 119.697 88.198 102.897 178.496-16.8-96.598-88.198-83.998-121.797-163.796-31.5-77.698 10.5-151.197-31.5-220.495 63 90.298 21 98.698 50.4 205.795z m184.795-86.098c-41.999-48.299-39.899-155.396 65.099-136.497s136.497 188.996 79.798 296.094c-23.1-81.899-102.897-111.298-144.897-159.597zM604.076 640.182c-33.6-18.9-60.899-37.799-90.298-48.298 6.3-25.2 10.5-52.5 10.5-79.799 0-27.299-4.2-54.598-10.5-77.698-8.4-27.3-18.9-52.499-33.6-73.498 237.295-132.297 428.39 23.1 485.09 113.397-104.998-33.599-172.197-58.798-258.295-60.898 130.197 18.9 264.594 92.398 312.893 188.995-58.799 31.5-109.197 50.4-153.296 65.099 29.399 6.3 56.698 12.6 81.898 25.2-266.694 170.095-409.49 4.2-470.39-29.4 10.5-14.7 18.9-29.4 25.2-46.199 33.6 10.5 67.198 18.9 100.798 23.1z"  horiz-adv-x="1028" />

    
    <glyph glyph-name="maomi" unicode="&#58892;" d="M751.534 722.475s-58.027-76.715-70.443-121.259c-12.458-44.544-59.093-54.912-82.9-78.72s-249.814-51.797-316.076-415.573c0 0 0-50.859-62.165-65.28-62.208-14.592-132.736-31.574-145.067-15.574-11.52 14.763 78.678 48.726 78.678 48.726s44.544 29.013 44.544 40.448c0 11.392-81.92-20.694-81.92-20.694S-43.431 40.62 11.566-17.493c54.912-58.027 258.09 0 296.448 16.512 38.4 16.554 94.293 24.917 120.277 2.133 25.9-22.87 43.52-33.195 132.608-28.032s163.712 5.163 163.712 5.163 34.176 33.194-29.013 48.725l-57.941 4.224s-47.659-1.024-9.387 49.707c38.4 50.816 36.267 83.882 36.267 83.882s23.808 0.982 32.085-38.357c8.277-39.339 20.736-118.187 88.064-124.33 0 0 14.55-47.66 89.088-21.76 0 0 38.4 20.735-9.387 43.562l-17.62 3.072s-74.668 139.947-71.553 181.333c0 0-8.277 33.238 19.755 57.046 27.99 23.808 102.613 117.077 59.093 284.97 0 0-9.387 20.694 53.888 27.99 63.147 7.253 71.552 40.448 79.787 80.81 0 0-3.072 13.44-17.622 24.918l-13.44 15.658s-18.645 63.147-104.618 57.003l-7.254 9.387-10.41 44.544s-23.808-6.187-24.918-32.086l-16.554 20.736c0-0.128-38.4-18.773-41.43-76.842z"  horiz-adv-x="1024" />

    
    <glyph glyph-name="faxian1" unicode="&#58932;" d="M514.42725925 882.19496297c-274.64438518 0-497.34542222-222.70103703-497.34542222-497.34542222 0.12136297-274.52302222 222.70103703-497.22405925 497.34542222-497.22405927s497.34542222 222.70103703 497.34542223 497.34542222S789.07164445 882.19496297 514.42725925 882.19496297z m246.97362964-306.19875556L670.98548148 259.48159999999996c-4.2477037-15.04900741-16.01991111-26.69985185-31.06891851-31.06891852l-316.51460742-90.4154074c-34.10299259-9.70903703-65.65736297 21.84533333-55.94832592 55.94832592L357.86903703 510.46020741c4.2477037 15.04900741 16.01991111 26.69985185 31.06891852 31.06891851l316.51460742 90.41540741c34.10299259 9.70903703 65.65736297-21.84533333 55.94832592-55.94832592zM512 384m-92.23585185 0a92.23585185 92.23585185 0 1 1 184.4717037 0 92.23585185 92.23585185 0 1 1-184.4717037 0Z"  horiz-adv-x="1024" />

    
    <glyph glyph-name="shujia1" unicode="&#58949;" d="M60.20614371 35.76920518999998h893.23140666c11.65084445 0 22.00715037-3.88361443 29.77438037-12.94538297 7.76723001-7.76723001 12.94538297-19.41807445 12.94538297-29.77438037v-63.43237518c0-11.65084445-3.88361443-22.00715037-12.94538297-29.77438038-7.76723001-7.76723001-19.41807445-12.94538297-29.77438037-12.94538296h-893.23140666c-11.65084445 0-22.00715037 3.88361443-29.77438037 12.94538296-7.76723001 7.76723001-12.94538297 19.41807445-12.94538297 29.77438038v63.43237518c0 11.65084445 3.88361443 22.00715037 12.94538297 29.77438037 7.76723001 9.06176739 18.12353593 12.94538297 29.77438037 12.94538297z m20.71261184-63.43237518h850.51164445v-20.71261298H80.91875555v20.71261298z m-20.71261184 744.35950592H188.36543261c11.65084445 0 22.00715037-3.88361443 29.77437923-12.94538297 7.76723001-7.76723001 12.94538297-19.41807445 12.94538297-29.77438037v-552.76784185c0-11.65084445-3.88361443-22.00715037-12.94538297-29.77438037-7.76723001-7.76723001-19.41807445-12.94538297-29.77437923-12.94538298h-128.1592889c-11.65084445 0-22.00715037 3.88361443-29.77438037 12.94538298-7.76723001 7.76723001-12.94538297 19.41807445-12.94538297 29.77438037V673.9765725899999c0 11.65084445 3.88361443 22.00715037 12.94538297 29.77438037 7.76723001 7.76723001 18.12353593 12.94538297 29.77438037 12.94538297z m20.71261184-63.43237518h85.43952555v-510.04807965h-85.43952555V653.26396075zM337.23733333 865.56823666h128.15928889c11.65084445 0 22.00715037-3.88361443 29.77438037-12.94538183 7.76723001-7.76723001 12.94538297-19.41807445 12.94538298-29.77438038v-701.63974371c0-11.65084445-3.88361443-22.00715037-12.94538298-29.77438037-7.76723001-7.76723001-19.41807445-12.94538297-29.77438037-12.94538298h-128.15928889c-11.65084445 0-22.00715037 3.88361443-29.77438037 12.94538298-7.76723001 7.76723001-12.94538297 19.41807445-12.94538297 29.77438037V822.84847445c0 11.65084445 3.88361443 22.00715037 12.94538297 29.77438038 7.76723001 7.76723001 18.12353593 12.94538297 29.77438037 12.94538183z m20.71261184-63.43237519h85.43952669v-658.91998037h-85.43952669V802.13586147z m148.87190187-91.91221702l110.03575296 64.7269137c10.35630592 5.17815296 22.00715037 6.47269149 32.36345629 3.88361444s20.71261184-10.35630592 25.89076593-20.71261184l314.5728-550.17876594c11.65084445-20.71261184 5.17815296-46.60337778-15.53445888-59.54876075l-110.03575296-64.72691257c-10.35630592-5.17815296-22.00715037-6.47269149-32.36345742-3.88361557s-20.71261184 10.35630592-25.8907648 20.71261298L491.28738816 650.6748837c-11.65084445 20.71261184-5.17815296 46.60337778 15.53445888 59.54876075z m62.13783666-66.02145224l73.78868224 42.71976334L913.30686407 214.41548629l-73.7886811-42.71976334-270.55849927 472.50646926z m0 0"  horiz-adv-x="1024" />

    
    <glyph glyph-name="yemian-copy-copy" unicode="&#58883;" d="M566.192 844.056a76.944 76.944 0 0 1-103.392 0L44.72 447.072a38.568 38.568 0 0 1 51.648-57.288l6.648 6.312V-18.24000000000001a77.136 77.136 0 0 1 77.136-77.232h224.472v232.224a54.312 54.312 0 0 0 54.336 54.384h105.624a54.312 54.312 0 0 0 54.336-54.384v-232.224h229.8a77.136 77.136 0 0 1 77.16 77.232V391.032c17.136-15.504 41.448-14.328 55.704 1.56a38.568 38.568 0 0 1-2.784 54.48L566.192 844.032z"  horiz-adv-x="1024" />

    
    <glyph glyph-name="wodedangxuan1" unicode="&#58884;" d="M933.61493333-100.96640000000002H88.20053333c-17.47626667 0-34.95253333 8.73813333-45.8752 21.84533333-10.92266667 15.29173333-15.29173333 32.768-10.92266666 50.24426667 43.69066667 222.8224 225.00693333 388.84693333 443.46026666 406.3232 73.18186667 0 152.3712-9.28426667 231.56053334-41.50613333 22.9376-9.28426667 30.58346667-15.29173333 43.69066666-21.84533334 126.70293333-72.0896 214.08426667-196.608 242.4832-342.97173333 4.36906667-17.47626667 0-34.95253333-13.1072-50.24426667-10.92266667-13.1072-28.39893333-21.84533333-45.8752-21.84533333zM89.2928-65.46773332999999c-7.09973333 0-13.65333333 2.73066667-17.47626667 7.64586666-0.54613333 0.54613333-0.54613333 1.09226667-1.09226666 1.6384-5.46133333 5.46133333-6.00746667 14.7456-4.9152 20.20693334 40.41386667 207.53066667 210.26133333 363.17866667 413.42293333 377.92426666h16.384c97.75786667 0 191.6928-30.58346667 237.568-59.52853333C853.33333333 210.32960000000003 933.61493333 97.27999999999997 958.73706667-35.97653333000005c1.09226667-7.64586667-0.54613333-14.7456-6.00746667-21.84533334-3.82293333-4.9152-10.37653333-7.64586667-17.47626667-7.64586666H89.2928zM495.616 328.84053332999997c95.0272 0 186.23146667-29.4912 230.46826667-57.344h0.54613333c116.87253333-69.35893333 194.42346667-179.13173333 218.45333333-309.11146666 0.54613333-2.73066667 0.54613333-6.5536-3.82293333-11.4688-0.54613333-1.09226667-3.2768-2.18453333-6.5536-2.18453334H89.2928c-3.2768 0-6.00746667 1.09226667-6.5536 2.18453334-0.54613333 1.09226667-1.6384 2.18453333-2.73066667 2.73066666-1.09226667 1.09226667-2.18453333 4.36906667-1.09226666 8.192 39.3216 201.5232 203.70773333 352.256 400.86186666 367.0016 4.9152-0.54613333 10.37653333 0 15.83786667 0m0 27.30666667c-5.46133333 0-11.4688 0-16.93013333-0.54613333C268.97066667 340.30933332999996 94.208 180.83839999999998 52.70186667-33.245866670000055c-2.18453333-10.92266667 0-24.02986667 8.73813333-32.768 6.5536-8.73813333 17.47626667-13.1072 28.39893333-13.1072H935.25333333c10.92266667 0 21.84533333 4.36906667 28.39893334 13.1072 6.5536 8.73813333 10.92266667 19.6608 8.73813333 32.768-26.2144 139.81013333-109.22666667 254.49813333-231.56053333 327.68-46.42133333 28.94506667-141.44853333 61.71306667-245.21386667 61.71306667zM512 357.78560000000004c-137.6256 0-251.22133333 113.59573333-251.22133333 251.22133333S374.3744 860.22826667 512 860.22826667s251.22133333-113.59573333 251.22133333-251.22133334S649.6256 357.78560000000004 512 357.78560000000004zM512 393.28426667c-119.05706667 0-215.72266667 96.6656-215.72266667 215.72266666S392.94293333 824.7296 512 824.7296s215.72266667-96.6656 215.72266667-215.72266667-96.6656-215.72266667-215.72266667-215.72266666zM512 811.07626667c111.4112 0 202.06933333-90.65813333 202.06933333-202.06933334S623.4112 406.9376 512 406.9376s-202.06933333 90.65813333-202.06933333 202.06933333 90.65813333 202.06933333 202.06933333 202.06933334m0 27.30666666c-126.70293333 0-229.376-102.67306667-229.376-229.376s102.67306667-229.376 229.376-229.376 229.376 102.67306667 229.376 229.376S638.70293333 838.38293333 512 838.38293333z"  horiz-adv-x="1024" />

    
    <glyph glyph-name="yemian-copy-copy-copy" unicode="&#58978;" d="M566.192 844.056a76.944 76.944 0 0 1-103.392 0L44.72 447.072a38.568 38.568 0 0 1 51.648-57.288l6.648 6.312V-18.24000000000001a77.136 77.136 0 0 1 77.136-77.232h224.472v232.224a54.312 54.312 0 0 0 54.336 54.384h105.624a54.312 54.312 0 0 0 54.336-54.384v-232.224h229.8a77.136 77.136 0 0 1 77.16 77.232V391.032c17.136-15.504 41.448-14.328 55.704 1.56a38.568 38.568 0 0 1-2.784 54.48L566.192 844.032z"  horiz-adv-x="1024" />

    
    <glyph glyph-name="wodedangxuan1-copy" unicode="&#58979;" d="M933.61493333-100.96640000000002H88.20053333c-17.47626667 0-34.95253333 8.73813333-45.8752 21.84533333-10.92266667 15.29173333-15.29173333 32.768-10.92266666 50.24426667 43.69066667 222.8224 225.00693333 388.84693333 443.46026666 406.3232 73.18186667 0 152.3712-9.28426667 231.56053334-41.50613333 22.9376-9.28426667 30.58346667-15.29173333 43.69066666-21.84533334 126.70293333-72.0896 214.08426667-196.608 242.4832-342.97173333 4.36906667-17.47626667 0-34.95253333-13.1072-50.24426667-10.92266667-13.1072-28.39893333-21.84533333-45.8752-21.84533333zM89.2928-65.46773332999999c-7.09973333 0-13.65333333 2.73066667-17.47626667 7.64586666-0.54613333 0.54613333-0.54613333 1.09226667-1.09226666 1.6384-5.46133333 5.46133333-6.00746667 14.7456-4.9152 20.20693334 40.41386667 207.53066667 210.26133333 363.17866667 413.42293333 377.92426666h16.384c97.75786667 0 191.6928-30.58346667 237.568-59.52853333C853.33333333 210.32960000000003 933.61493333 97.27999999999997 958.73706667-35.97653333000005c1.09226667-7.64586667-0.54613333-14.7456-6.00746667-21.84533334-3.82293333-4.9152-10.37653333-7.64586667-17.47626667-7.64586666H89.2928zM495.616 328.84053332999997c95.0272 0 186.23146667-29.4912 230.46826667-57.344h0.54613333c116.87253333-69.35893333 194.42346667-179.13173333 218.45333333-309.11146666 0.54613333-2.73066667 0.54613333-6.5536-3.82293333-11.4688-0.54613333-1.09226667-3.2768-2.18453333-6.5536-2.18453334H89.2928c-3.2768 0-6.00746667 1.09226667-6.5536 2.18453334-0.54613333 1.09226667-1.6384 2.18453333-2.73066667 2.73066666-1.09226667 1.09226667-2.18453333 4.36906667-1.09226666 8.192 39.3216 201.5232 203.70773333 352.256 400.86186666 367.0016 4.9152-0.54613333 10.37653333 0 15.83786667 0m0 27.30666667c-5.46133333 0-11.4688 0-16.93013333-0.54613333C268.97066667 340.30933332999996 94.208 180.83839999999998 52.70186667-33.245866670000055c-2.18453333-10.92266667 0-24.02986667 8.73813333-32.768 6.5536-8.73813333 17.47626667-13.1072 28.39893333-13.1072H935.25333333c10.92266667 0 21.84533333 4.36906667 28.39893334 13.1072 6.5536 8.73813333 10.92266667 19.6608 8.73813333 32.768-26.2144 139.81013333-109.22666667 254.49813333-231.56053333 327.68-46.42133333 28.94506667-141.44853333 61.71306667-245.21386667 61.71306667zM512 357.78560000000004c-137.6256 0-251.22133333 113.59573333-251.22133333 251.22133333S374.3744 860.22826667 512 860.22826667s251.22133333-113.59573333 251.22133333-251.22133334S649.6256 357.78560000000004 512 357.78560000000004zM512 393.28426667c-119.05706667 0-215.72266667 96.6656-215.72266667 215.72266666S392.94293333 824.7296 512 824.7296s215.72266667-96.6656 215.72266667-215.72266667-96.6656-215.72266667-215.72266667-215.72266666zM512 811.07626667c111.4112 0 202.06933333-90.65813333 202.06933333-202.06933334S623.4112 406.9376 512 406.9376s-202.06933333 90.65813333-202.06933333 202.06933333 90.65813333 202.06933333 202.06933333 202.06933334m0 27.30666666c-126.70293333 0-229.376-102.67306667-229.376-229.376s102.67306667-229.376 229.376-229.376 229.376 102.67306667 229.376 229.376S638.70293333 838.38293333 512 838.38293333z"  horiz-adv-x="1024" />

    
    <glyph glyph-name="shujia1-copy" unicode="&#58980;" d="M60.20614371 35.76920518999998h893.23140666c11.65084445 0 22.00715037-3.88361443 29.77438037-12.94538297 7.76723001-7.76723001 12.94538297-19.41807445 12.94538297-29.77438037v-63.43237518c0-11.65084445-3.88361443-22.00715037-12.94538297-29.77438038-7.76723001-7.76723001-19.41807445-12.94538297-29.77438037-12.94538296h-893.23140666c-11.65084445 0-22.00715037 3.88361443-29.77438037 12.94538296-7.76723001 7.76723001-12.94538297 19.41807445-12.94538297 29.77438038v63.43237518c0 11.65084445 3.88361443 22.00715037 12.94538297 29.77438037 7.76723001 9.06176739 18.12353593 12.94538297 29.77438037 12.94538297z m20.71261184-63.43237518h850.51164445v-20.71261298H80.91875555v20.71261298z m-20.71261184 744.35950592H188.36543261c11.65084445 0 22.00715037-3.88361443 29.77437923-12.94538297 7.76723001-7.76723001 12.94538297-19.41807445 12.94538297-29.77438037v-552.76784185c0-11.65084445-3.88361443-22.00715037-12.94538297-29.77438037-7.76723001-7.76723001-19.41807445-12.94538297-29.77437923-12.94538298h-128.1592889c-11.65084445 0-22.00715037 3.88361443-29.77438037 12.94538298-7.76723001 7.76723001-12.94538297 19.41807445-12.94538297 29.77438037V673.9765725899999c0 11.65084445 3.88361443 22.00715037 12.94538297 29.77438037 7.76723001 7.76723001 18.12353593 12.94538297 29.77438037 12.94538297z m20.71261184-63.43237518h85.43952555v-510.04807965h-85.43952555V653.26396075zM337.23733333 865.56823666h128.15928889c11.65084445 0 22.00715037-3.88361443 29.77438037-12.94538183 7.76723001-7.76723001 12.94538297-19.41807445 12.94538298-29.77438038v-701.63974371c0-11.65084445-3.88361443-22.00715037-12.94538298-29.77438037-7.76723001-7.76723001-19.41807445-12.94538297-29.77438037-12.94538298h-128.15928889c-11.65084445 0-22.00715037 3.88361443-29.77438037 12.94538298-7.76723001 7.76723001-12.94538297 19.41807445-12.94538297 29.77438037V822.84847445c0 11.65084445 3.88361443 22.00715037 12.94538297 29.77438038 7.76723001 7.76723001 18.12353593 12.94538297 29.77438037 12.94538183z m20.71261184-63.43237519h85.43952669v-658.91998037h-85.43952669V802.13586147z m148.87190187-91.91221702l110.03575296 64.7269137c10.35630592 5.17815296 22.00715037 6.47269149 32.36345629 3.88361444s20.71261184-10.35630592 25.89076593-20.71261184l314.5728-550.17876594c11.65084445-20.71261184 5.17815296-46.60337778-15.53445888-59.54876075l-110.03575296-64.72691257c-10.35630592-5.17815296-22.00715037-6.47269149-32.36345742-3.88361557s-20.71261184 10.35630592-25.8907648 20.71261298L491.28738816 650.6748837c-11.65084445 20.71261184-5.17815296 46.60337778 15.53445888 59.54876075z m62.13783666-66.02145224l73.78868224 42.71976334L913.30686407 214.41548629l-73.7886811-42.71976334-270.55849927 472.50646926z m0 0"  horiz-adv-x="1024" />

    
    <glyph glyph-name="faxian1-copy" unicode="&#58981;" d="M514.42725925 882.19496297c-274.64438518 0-497.34542222-222.70103703-497.34542222-497.34542222 0.12136297-274.52302222 222.70103703-497.22405925 497.34542222-497.22405927s497.34542222 222.70103703 497.34542223 497.34542222S789.07164445 882.19496297 514.42725925 882.19496297z m246.97362964-306.19875556L670.98548148 259.48159999999996c-4.2477037-15.04900741-16.01991111-26.69985185-31.06891851-31.06891852l-316.51460742-90.4154074c-34.10299259-9.70903703-65.65736297 21.84533333-55.94832592 55.94832592L357.86903703 510.46020741c4.2477037 15.04900741 16.01991111 26.69985185 31.06891852 31.06891851l316.51460742 90.41540741c34.10299259 9.70903703 65.65736297-21.84533333 55.94832592-55.94832592zM512 384m-92.23585185 0a92.23585185 92.23585185 0 1 1 184.4717037 0 92.23585185 92.23585185 0 1 1-184.4717037 0Z"  horiz-adv-x="1024" />

    


  </font>
</defs>
</svg>
